<svg xmlns="http://www.w3.org/2000/svg" xmlns:xlink="http://www.w3.org/1999/xlink" width="230.85" height="124.85" viewBox="0 0 230.85 124.85"><defs><style>.cls-1{fill:url(#linear-gradient);}.cls-2{fill:url(#linear-gradient-2);}.cls-3{fill:url(#linear-gradient-3);}.cls-4{fill:url(#linear-gradient-4);}.cls-5{fill:url(#linear-gradient-5);}.cls-6{fill:url(#linear-gradient-6);}.cls-7{fill:url(#linear-gradient-7);}.cls-8{fill:url(#linear-gradient-8);}.cls-9{fill:url(#linear-gradient-9);}.cls-10{opacity:0.22;}.cls-11{fill:#f5f5f5;}.cls-12{fill:url(#linear-gradient-10);}.cls-13{fill:#19579f;}.cls-14{opacity:0.5;}</style><linearGradient id="linear-gradient" x1="307.15" y1="494.75" x2="307.15" y2="413.94" gradientUnits="userSpaceOnUse"><stop offset="0.12" stop-color="#19579f"/><stop offset="1" stop-color="#36a9e1"/></linearGradient><linearGradient id="linear-gradient-2" x1="334.82" y1="494.75" x2="334.82" y2="413.94" xlink:href="#linear-gradient"/><linearGradient id="linear-gradient-3" x1="354.12" y1="494.75" x2="354.12" y2="413.94" xlink:href="#linear-gradient"/><linearGradient id="linear-gradient-4" x1="372.35" y1="494.75" x2="372.35" y2="413.94" xlink:href="#linear-gradient"/><linearGradient id="linear-gradient-5" x1="349.23" y1="396.39" x2="459.12" y2="506.28" gradientUnits="userSpaceOnUse"><stop offset="0.12" stop-color="#e6332a"/><stop offset="1" stop-color="#be1622"/></linearGradient><linearGradient id="linear-gradient-6" x1="357.17" y1="388.45" x2="467.07" y2="498.35" xlink:href="#linear-gradient-5"/><linearGradient id="linear-gradient-7" x1="453.31" y1="494.75" x2="453.31" y2="413.94" xlink:href="#linear-gradient"/><linearGradient id="linear-gradient-8" x1="472.61" y1="494.75" x2="472.61" y2="413.94" xlink:href="#linear-gradient"/><linearGradient id="linear-gradient-9" x1="492.03" y1="494.75" x2="492.03" y2="413.94" xlink:href="#linear-gradient"/><linearGradient id="linear-gradient-10" x1="52.7" y1="36.2" x2="160.07" y2="36.2" xlink:href="#linear-gradient-5"/></defs><path class="cls-1" d="M293.4,465.2V440.35a5,5,0,0,1,1.37-3.76,5.35,5.35,0,0,1,3.89-1.28H320.9v7.26h-16a1.86,1.86,0,0,0-1.37.43,2.26,2.26,0,0,0-.47,1.58v2.09h13v6.75h-13V465.2Z" transform="translate(-293.4 -347.66)"/><path class="cls-2" d="M344.9,444.62c2.82,2.52,3,7,3,9.27s-.17,6.74-3,9.26c-2.48,2.18-6.49,2.31-10.08,2.31s-7.6-.13-10.08-2.31c-2.81-2.52-3-7-3-9.26s.17-6.75,3-9.27c2.48-2.18,6.5-2.3,10.08-2.3S342.42,442.44,344.9,444.62Zm-13.79,13.24c.17.26,1.15,1.54,3.71,1.54a4.18,4.18,0,0,0,3.67-1.54,6.82,6.82,0,0,0,.86-4c0-2.39-.39-3.46-.81-4.06s-1.41-1.45-3.72-1.45-3.29.9-3.71,1.45-.82,1.41-.82,4.06C330.29,456.37,330.77,457.39,331.11,457.86Z" transform="translate(-293.4 -347.66)"/><path class="cls-3" d="M349.94,435.31h8.36V465.2h-8.36Z" transform="translate(-293.4 -347.66)"/><path class="cls-4" d="M384.35,435.31v25.11a6.16,6.16,0,0,1-.73,3.25c-1,1.45-2.64,1.53-3.88,1.53H368.51c-3.5,0-6-1.53-7.13-4.35a19.76,19.76,0,0,1-1-7.52c0-2.77.13-5.38,1.67-7.55,2-2.78,5.17-3.21,7.52-3.21H376v-7.26Zm-12,13.07a3.12,3.12,0,0,0-2.69,1.37,7.23,7.23,0,0,0-.9,4.05,8.48,8.48,0,0,0,.6,3.93,3.22,3.22,0,0,0,3,1.67h2a1.68,1.68,0,0,0,1.23-.35,2.15,2.15,0,0,0,.43-1.53v-9.14Z" transform="translate(-293.4 -347.66)"/><path class="cls-5" d="M391.18,446.07l-5.55-3.28,6.53-10.93,6.24,3.71Z" transform="translate(-293.4 -347.66)"/><path class="cls-6" d="M435.29,460.21c0,1.07-.21,5.33-6.49,5.33-2.26,0-4.61-.29-6.49-2.94l-10.8-15.24c-.22-.3-.52-.73-.81-.73-.13,0-.6,0-.6.85V465.2h-7.43V440.27c0-3.89,3.24-5.3,6.7-5.3,1.62,0,4.49.17,6.32,2.78l10.89,15.37c.21.3.47.73.81.73s.47-.52.47-.73V435.31h7.43Z" transform="translate(-293.4 -347.66)"/><path class="cls-7" d="M439.56,465.2V440.35a4.92,4.92,0,0,1,1.37-3.76,5.31,5.31,0,0,1,3.88-1.28h22.25v7.26H451a1.84,1.84,0,0,0-1.36.43,2.26,2.26,0,0,0-.47,1.58v2.09h13v6.75h-13V465.2Z" transform="translate(-293.4 -347.66)"/><path class="cls-8" d="M468.42,435.31h8.37V465.2h-8.37Z" transform="translate(-293.4 -347.66)"/><path class="cls-9" d="M493.06,472.5h-8.37l3.54-7.3-10.76-22.63H486L492,456.92l6.28-14.35h8.37Z" transform="translate(-293.4 -347.66)"/><g class="cls-10"><path class="cls-11" d="M303.05,453.42h13v-6.75h-13v-2.09a2.26,2.26,0,0,1,.47-1.58,1.86,1.86,0,0,1,1.37-.43h16v-7.26H298.66a5.35,5.35,0,0,0-3.89,1.28,5,5,0,0,0-1.37,3.76v18.7q4.69-.72,9.65-1.38Z" transform="translate(-293.4 -347.66)"/><path class="cls-11" d="M330.29,453.89c0-2.65.52-3.63.82-4.06s1.41-1.45,3.71-1.45,3.29.9,3.72,1.45.81,1.67.81,4.06a.53.53,0,0,1,0,.12q4.21-.31,8.54-.57c0-2.37-.34-6.46-3-8.82-2.48-2.18-6.49-2.3-10.08-2.3s-7.6.12-10.08,2.3c-2.81,2.52-3,7-3,9.27,0,.46,0,1,0,1.62q4.18-.42,8.52-.79C330.3,454.46,330.29,454.19,330.29,453.89Z" transform="translate(-293.4 -347.66)"/><path class="cls-11" d="M358.3,435.31h-8.36v18q4.14-.24,8.36-.44Z" transform="translate(-293.4 -347.66)"/><path class="cls-11" d="M369.62,449.75a3.11,3.11,0,0,1,2.69-1.37H376v3.83q4.15-.12,8.37-.18V435.31H376v7.26h-6.45c-2.35,0-5.55.43-7.52,3.21-1.43,2-1.63,4.43-1.66,7,2.78-.12,5.59-.24,8.43-.34A5.43,5.43,0,0,1,369.62,449.75Z" transform="translate(-293.4 -347.66)"/><polygon class="cls-11" points="104.99 87.91 98.76 84.2 92.23 95.13 97.78 98.42 104.99 87.91"/><path class="cls-11" d="M410.1,447.48c0-.85.47-.85.6-.85.29,0,.59.43.81.73L414.8,452c3.76.06,7.49.15,11.17.25l-10.28-14.51c-1.83-2.61-4.7-2.78-6.32-2.78-3.46,0-6.7,1.41-6.7,5.3v11.62c2.49,0,5,0,7.43.06Z" transform="translate(-293.4 -347.66)"/><path class="cls-11" d="M435.29,435.31h-7.43v17c2.5.08,5,.17,7.43.27Z" transform="translate(-293.4 -347.66)"/><path class="cls-11" d="M462.23,453.42v-6.75h-13v-2.09a2.26,2.26,0,0,1,.47-1.58,1.84,1.84,0,0,1,1.36-.43h16v-7.26H444.81a5.31,5.31,0,0,0-3.88,1.28,4.92,4.92,0,0,0-1.37,3.76v12.42q6.22.28,12.27.65Z" transform="translate(-293.4 -347.66)"/><path class="cls-11" d="M476.79,435.31h-8.37v19.3c2.84.24,5.62.49,8.37.76Z" transform="translate(-293.4 -347.66)"/><path class="cls-11" d="M506.6,442.57h-8.37L492,456.92,486,442.57h-8.54l6.43,13.53q8.16.88,15.71,1.93Z" transform="translate(-293.4 -347.66)"/></g><polygon class="cls-12" points="86.91 43.53 107.78 41.44 145.82 28.96 67.37 28.88 86.91 43.53"/><polygon class="cls-13" points="89.48 51.83 107.78 41.44 145.82 28.96 82.16 75.13 89.48 51.83"/><polygon class="cls-13" points="124.17 50.73 110.11 60.93 131.2 75.13 124.17 50.73"/><polygon class="cls-13" points="97.91 23.79 115.28 23.95 106.76 0 97.91 23.79"/><g class="cls-14"><path class="cls-13" d="M229.929,86.343c0,2.879-2.261,5.14-5.201,5.14-2.91,0-5.232-2.261-5.232-5.14,0-2.817,2.322-5.077,5.232-5.077,2.94,0,5.201,2.26,5.201,5.077Zm-9.134,0c0,2.26,1.672,4.056,3.963,4.056,2.229,0,3.87-1.796,3.87-4.024,0-2.261-1.641-4.087-3.9-4.087s-3.933,1.826-3.933,4.056Zm3.127,2.662h-1.176v-5.077c.464-.093,1.114-.154,1.95-.154,.96,0,1.394,.154,1.765,.371,.278,.217,.495,.619,.495,1.114,0,.558-.434,.991-1.053,1.177v.062c.496,.187,.774,.558,.929,1.239,.155,.773,.248,1.083,.372,1.269h-1.27c-.154-.186-.248-.649-.402-1.238-.093-.557-.402-.805-1.053-.805h-.558v2.043Zm.031-2.879h.558c.649,0,1.176-.217,1.176-.743,0-.464-.34-.773-1.083-.773-.31,0-.526,.03-.65,.062v1.455Z"/></g></svg>